<svg width="20" height="20" viewBox="0 0 20 20" fill="none" xmlns="http://www.w3.org/2000/svg">
<path fill-rule="evenodd" clip-rule="evenodd" d="M13.3334 9.16666C13.3334 11.005 11.8384 12.5 10 12.5C8.16169 12.5 6.66669 11.005 6.66669 9.16666V4.99999C6.66669 3.16166 8.16169 1.66666 10 1.66666C11.8384 1.66666 13.3334 3.16166 13.3334 4.99999V9.16666ZM15 8.33332C15.4609 8.33332 15.8334 8.70666 15.8334 9.16666C15.8334 12.1 13.6559 14.5267 10.8334 14.9333V16.6667H12.5875C12.9984 16.6667 13.3334 17.0017 13.3334 17.4125V17.5875C13.3334 17.9983 12.9984 18.3333 12.5875 18.3333H7.41252C7.00169 18.3333 6.66669 17.9983 6.66669 17.5875V17.4125C6.66669 17.0017 7.00169 16.6667 7.41252 16.6667H9.16669V14.9333C6.34419 14.5267 4.16669 12.1 4.16669 9.16666C4.16669 8.70666 4.53919 8.33332 5.00002 8.33332C5.46085 8.33332 5.83335 8.70666 5.83335 9.16666C5.83335 11.4642 7.70252 13.3333 10 13.3333C12.2975 13.3333 14.1667 11.4642 14.1667 9.16666C14.1667 8.70666 14.5392 8.33332 15 8.33332Z" fill="#6A758A"/>
<mask id="mask0" mask-type="alpha" maskUnits="userSpaceOnUse" x="4" y="1" width="12" height="18">
<path fill-rule="evenodd" clip-rule="evenodd" d="M13.3334 9.16666C13.3334 11.005 11.8384 12.5 10 12.5C8.16169 12.5 6.66669 11.005 6.66669 9.16666V4.99999C6.66669 3.16166 8.16169 1.66666 10 1.66666C11.8384 1.66666 13.3334 3.16166 13.3334 4.99999V9.16666ZM15 8.33332C15.4609 8.33332 15.8334 8.70666 15.8334 9.16666C15.8334 12.1 13.6559 14.5267 10.8334 14.9333V16.6667H12.5875C12.9984 16.6667 13.3334 17.0017 13.3334 17.4125V17.5875C13.3334 17.9983 12.9984 18.3333 12.5875 18.3333H7.41252C7.00169 18.3333 6.66669 17.9983 6.66669 17.5875V17.4125C6.66669 17.0017 7.00169 16.6667 7.41252 16.6667H9.16669V14.9333C6.34419 14.5267 4.16669 12.1 4.16669 9.16666C4.16669 8.70666 4.53919 8.33332 5.00002 8.33332C5.46085 8.33332 5.83335 8.70666 5.83335 9.16666C5.83335 11.4642 7.70252 13.3333 10 13.3333C12.2975 13.3333 14.1667 11.4642 14.1667 9.16666C14.1667 8.70666 14.5392 8.33332 15 8.33332Z" fill="white"/>
</mask>
<g mask="url(#mask0)">
</g>
</svg>
