<svg width="48" height="48" viewBox="0 0 48 48" fill="none" xmlns="http://www.w3.org/2000/svg">
<path fill-rule="evenodd" clip-rule="evenodd" d="M31.9995 30C31.9995 31.1 31.0995 32 29.9995 32C28.8995 32 27.9995 31.1 27.9995 30V18C27.9995 16.9 28.8995 16 29.9995 16C31.0995 16 31.9995 16.9 31.9995 18V30ZM19.9995 30C19.9995 31.1 19.0995 32 17.9995 32C16.8995 32 15.9995 31.1 15.9995 30V18C15.9995 16.9 16.8995 16 17.9995 16C19.0995 16 19.9995 16.9 19.9995 18V30ZM23.9995 4C12.9715 4 3.9995 12.972 3.9995 24C3.9995 35.028 12.9715 44 23.9995 44C35.0295 44 43.9995 35.028 43.9995 24C43.9995 12.972 35.0295 4 23.9995 4Z" fill="#DE1819"/>
<mask id="mask0" mask-type="alpha" maskUnits="userSpaceOnUse" x="3" y="4" width="41" height="40">
<path fill-rule="evenodd" clip-rule="evenodd" d="M31.9995 30C31.9995 31.1 31.0995 32 29.9995 32C28.8995 32 27.9995 31.1 27.9995 30V18C27.9995 16.9 28.8995 16 29.9995 16C31.0995 16 31.9995 16.9 31.9995 18V30ZM19.9995 30C19.9995 31.1 19.0995 32 17.9995 32C16.8995 32 15.9995 31.1 15.9995 30V18C15.9995 16.9 16.8995 16 17.9995 16C19.0995 16 19.9995 16.9 19.9995 18V30ZM23.9995 4C12.9715 4 3.9995 12.972 3.9995 24C3.9995 35.028 12.9715 44 23.9995 44C35.0295 44 43.9995 35.028 43.9995 24C43.9995 12.972 35.0295 4 23.9995 4Z" fill="white"/>
</mask>
<g mask="url(#mask0)">
</g>
</svg>
