<svg width="20" height="20" viewBox="0 0 20 20" fill="none" xmlns="http://www.w3.org/2000/svg">
<path fill-rule="evenodd" clip-rule="evenodd" d="M9.58332 12.1663L11.9242 9.99966L9.58332 7.83383V12.1663ZM13.3167 10.9822L10.2817 13.7906C10.0158 14.0372 9.66999 14.1664 9.31749 14.1664C9.12332 14.1664 8.92582 14.1264 8.73999 14.0456C8.23166 13.8239 7.91666 13.3497 7.91666 12.8081V7.19141C7.91666 6.65058 8.23166 6.17558 8.73999 5.95475C9.26166 5.72558 9.86749 5.82558 10.2825 6.20975L13.3167 9.01808C13.5925 9.27225 13.75 9.63058 13.75 9.99975C13.75 10.3697 13.5925 10.7272 13.3167 10.9822ZM9.99999 1.66641C5.40499 1.66641 1.66666 5.40558 1.66666 9.99975C1.66666 14.5947 5.40499 18.3331 9.99999 18.3331C14.595 18.3331 18.3333 14.5947 18.3333 9.99975C18.3333 5.40558 14.595 1.66641 9.99999 1.66641Z" fill="#6A758A"/>
<mask id="mask0" mask-type="alpha" maskUnits="userSpaceOnUse" x="1" y="1" width="18" height="18">
<path fill-rule="evenodd" clip-rule="evenodd" d="M9.58332 12.1663L11.9242 9.99966L9.58332 7.83383V12.1663ZM13.3167 10.9822L10.2817 13.7906C10.0158 14.0372 9.66999 14.1664 9.31749 14.1664C9.12332 14.1664 8.92582 14.1264 8.73999 14.0456C8.23166 13.8239 7.91666 13.3497 7.91666 12.8081V7.19141C7.91666 6.65058 8.23166 6.17558 8.73999 5.95475C9.26166 5.72558 9.86749 5.82558 10.2825 6.20975L13.3167 9.01808C13.5925 9.27225 13.75 9.63058 13.75 9.99975C13.75 10.3697 13.5925 10.7272 13.3167 10.9822ZM9.99999 1.66641C5.40499 1.66641 1.66666 5.40558 1.66666 9.99975C1.66666 14.5947 5.40499 18.3331 9.99999 18.3331C14.595 18.3331 18.3333 14.5947 18.3333 9.99975C18.3333 5.40558 14.595 1.66641 9.99999 1.66641Z" fill="white"/>
</mask>
<g mask="url(#mask0)">
</g>
</svg>
