<svg width="60" height="60" viewBox="0 0 60 60" fill="none" xmlns="http://www.w3.org/2000/svg">
    <path fill-rule="evenodd" clip-rule="evenodd" d="M30 15C31.38 15 32.5 13.8825 32.5 12.5V7.5C32.5 6.1175 31.38 5 30 5C28.62 5 27.5 6.1175 27.5 7.5V12.5C27.5 13.8825 28.62 15 30 15ZM52.5 27.5H47.5C46.12 27.5 45 28.6175 45 30C45 31.3825 46.12 32.5 47.5 32.5H52.5C53.88 32.5 55 31.3825 55 30C55 28.6175 53.88 27.5 52.5 27.5ZM12.5 27.5C13.88 27.5 15 28.6175 15 30C15 31.3825 13.88 32.5 12.5 32.5H7.5C6.12 32.5 5 31.3825 5 30C5 28.6175 6.12 27.5 7.5 27.5H12.5ZM15.5513 12.5707C14.5588 11.6132 12.9763 11.6432 12.0163 12.6332C11.0563 13.6257 11.0838 15.2107 12.0763 16.1682L15.6738 19.6432C16.1613 20.1132 16.7863 20.3432 17.4113 20.3432C18.0663 20.3432 18.7188 20.0882 19.2088 19.5807C20.1688 18.5882 20.1413 17.0032 19.1488 16.0457L15.5513 12.5707ZM44.3255 19.6442C43.838 20.1117 43.213 20.3442 42.588 20.3442C41.933 20.3442 41.2805 20.0867 40.7905 19.5792C39.8305 18.5892 39.858 17.0042 40.8505 16.0442L44.448 12.5717C45.4455 11.6142 47.0255 11.6442 47.983 12.6342C48.943 13.6242 48.9155 15.2092 47.923 16.1692L44.3255 19.6442ZM30 45C28.62 45 27.5 46.1175 27.5 47.5V52.5C27.5 53.8825 28.62 55 30 55C31.38 55 32.5 53.8825 32.5 52.5V47.5C32.5 46.1175 31.38 45 30 45ZM40.7903 40.419C41.7503 39.429 43.3328 39.399 44.3253 40.3565L47.9228 43.8315C48.9153 44.789 48.9428 46.374 47.9828 47.3665C47.4928 47.874 46.8403 48.129 46.1853 48.129C45.5603 48.129 44.9353 47.899 44.4478 47.429L40.8503 43.954C39.8578 42.9965 39.8303 41.4115 40.7903 40.419ZM15.6741 40.3565L12.0766 43.8315C11.0841 44.789 11.0566 46.374 12.0166 47.3665C12.5066 47.874 13.1591 48.129 13.8141 48.129C14.4391 48.129 15.0641 47.899 15.5516 47.429L19.1491 43.954C20.1416 42.9965 20.1691 41.4115 19.2091 40.419C18.2516 39.429 16.6691 39.399 15.6741 40.3565ZM20 30C20 24.485 24.485 20 30 20C35.515 20 40 24.485 40 30C40 35.515 35.515 40 30 40C24.485 40 20 35.515 20 30Z" fill="#F2C94C"/>
    <mask id="mask0" mask-type="alpha" maskUnits="userSpaceOnUse" x="5" y="5" width="50" height="50">
        <path fill-rule="evenodd" clip-rule="evenodd" d="M30 15C31.38 15 32.5 13.8825 32.5 12.5V7.5C32.5 6.1175 31.38 5 30 5C28.62 5 27.5 6.1175 27.5 7.5V12.5C27.5 13.8825 28.62 15 30 15ZM52.5 27.5H47.5C46.12 27.5 45 28.6175 45 30C45 31.3825 46.12 32.5 47.5 32.5H52.5C53.88 32.5 55 31.3825 55 30C55 28.6175 53.88 27.5 52.5 27.5ZM12.5 27.5C13.88 27.5 15 28.6175 15 30C15 31.3825 13.88 32.5 12.5 32.5H7.5C6.12 32.5 5 31.3825 5 30C5 28.6175 6.12 27.5 7.5 27.5H12.5ZM15.5513 12.5707C14.5588 11.6132 12.9763 11.6432 12.0163 12.6332C11.0563 13.6257 11.0838 15.2107 12.0763 16.1682L15.6738 19.6432C16.1613 20.1132 16.7863 20.3432 17.4113 20.3432C18.0663 20.3432 18.7188 20.0882 19.2088 19.5807C20.1688 18.5882 20.1413 17.0032 19.1488 16.0457L15.5513 12.5707ZM44.3255 19.6442C43.838 20.1117 43.213 20.3442 42.588 20.3442C41.933 20.3442 41.2805 20.0867 40.7905 19.5792C39.8305 18.5892 39.858 17.0042 40.8505 16.0442L44.448 12.5717C45.4455 11.6142 47.0255 11.6442 47.983 12.6342C48.943 13.6242 48.9155 15.2092 47.923 16.1692L44.3255 19.6442ZM30 45C28.62 45 27.5 46.1175 27.5 47.5V52.5C27.5 53.8825 28.62 55 30 55C31.38 55 32.5 53.8825 32.5 52.5V47.5C32.5 46.1175 31.38 45 30 45ZM40.7903 40.419C41.7503 39.429 43.3328 39.399 44.3253 40.3565L47.9228 43.8315C48.9153 44.789 48.9428 46.374 47.9828 47.3665C47.4928 47.874 46.8403 48.129 46.1853 48.129C45.5603 48.129 44.9353 47.899 44.4478 47.429L40.8503 43.954C39.8578 42.9965 39.8303 41.4115 40.7903 40.419ZM15.6741 40.3565L12.0766 43.8315C11.0841 44.789 11.0566 46.374 12.0166 47.3665C12.5066 47.874 13.1591 48.129 13.8141 48.129C14.4391 48.129 15.0641 47.899 15.5516 47.429L19.1491 43.954C20.1416 42.9965 20.1691 41.4115 19.2091 40.419C18.2516 39.429 16.6691 39.399 15.6741 40.3565ZM20 30C20 24.485 24.485 20 30 20C35.515 20 40 24.485 40 30C40 35.515 35.515 40 30 40C24.485 40 20 35.515 20 30Z" fill="white"/>
    </mask>
    <g mask="url(#mask0)">
    </g>
</svg>
